<svg width="24" height="24" viewBox="0 0 24 24" fill="none" xmlns="http://www.w3.org/2000/svg">
<path fill-rule="evenodd" clip-rule="evenodd" d="M11.3071 0.163835C11.736 -0.0538792 12.264 -0.0538792 12.6922 0.163835C14.8111 1.23983 21.1875 4.47869 23.3071 5.55469C23.7359 5.77183 23.9999 6.17412 23.9999 6.60954C23.9999 8.76154 23.9999 15.2387 23.9999 17.3907C23.9999 17.8261 23.7359 18.2284 23.3071 18.4461C21.1882 19.5221 14.8118 22.761 12.6922 23.837C12.2633 24.0547 11.7353 24.0547 11.3071 23.837C9.18819 22.761 2.81178 19.5221 0.692209 18.4461C0.264 18.2284 0 17.8267 0 17.3913C0 15.2393 0 8.76212 0 6.61012C0 6.17469 0.263999 5.7724 0.692841 5.55469C2.81115 4.47869 9.18882 1.23983 11.3071 0.163835Z" fill="white"/>
<path fill-rule="evenodd" clip-rule="evenodd" d="M0.191999 17.9453C0.0239999 17.7419 0 17.5487 0 17.2887C0 15.1493 0 8.7093 0 6.5693C0 6.13616 0.263368 5.73616 0.690946 5.52016C2.80231 4.45044 9.15724 1.23045 11.2686 0.160161C11.6962 -0.0564105 12.2753 -0.051839 12.7029 0.164732C14.8143 1.23445 21.1477 4.42702 23.2591 5.49673C23.4296 5.58359 23.5597 5.68816 23.6759 5.82587L0.191999 17.9453Z" fill="white"/>
<path fill-rule="evenodd" clip-rule="evenodd" d="M12 4.00018C16.8802 4.00018 20.8421 7.58475 20.8421 12.0002C20.8421 16.4156 16.8802 20.0002 12 20.0002C7.11978 20.0002 3.1579 16.4156 3.1579 12.0002C3.1579 7.58475 7.11978 4.00018 12 4.00018ZM12 8.00018C14.4398 8.00018 16.421 9.79218 16.421 12.0002C16.421 14.2076 14.4398 16.0002 12 16.0002C9.5602 16.0002 7.57894 14.2076 7.57894 12.0002C7.57894 9.79218 9.55957 8.00018 12 8.00018Z" fill="#1A2933"/>
<path fill-rule="evenodd" clip-rule="evenodd" d="M23.6747 5.8316C24.0006 6.1076 23.9943 6.5236 23.9943 6.85103C23.9943 9.0196 23.974 15.1876 23.9999 17.3562C24.0025 17.5825 23.9197 17.8207 23.7959 18.0002L11.7429 12.0002L23.6747 5.8316Z" fill="white"/>
</svg>
