<?xml version="1.0" encoding="UTF-8"?>
<svg version="1.1" xmlns="http://www.w3.org/2000/svg" width="50" height="50">
<path d="M0 0 C2.31 0 4.62 0 7 0 C7 3.3 7 6.6 7 10 C8.65 10 10.3 10 12 10 C12 11.32 12 12.64 12 14 C13.32 14 14.64 14 16 14 C16 11.36 16 8.72 16 6 C17.32 5.34 18.64 4.68 20 4 C20.53625 4.78375 21.0725 5.5675 21.625 6.375 C24.30242842 9.33426299 26.18433025 10.04608256 30 11 C29.67 12.65 29.34 14.3 29 16 C28.34 16 27.68 16 27 16 C27.99 17.32 28.98 18.64 30 20 C27.03 20 24.06 20 21 20 C20.34 21.32 19.68 22.64 19 24 C17.265625 25.8515625 17.265625 25.8515625 15.25 27.625 C14.59515625 28.21539062 13.9403125 28.80578125 13.265625 29.4140625 C8.32525638 32.87232054 3.41676488 33.31487028 -2.5 33.375 C-4.40265625 33.41753906 -4.40265625 33.41753906 -6.34375 33.4609375 C-11.59689162 32.79868247 -15.63402443 30.074602 -19 26 C-20.28317892 22.15046324 -20.06643637 19.05261865 -20 15 C-18.35 15 -16.7 15 -15 15 C-15 13.35 -15 11.7 -15 10 C-13.35 10 -11.7 10 -10 10 C-10 8.35 -10 6.7 -10 5 C-6.7 5 -3.4 5 0 5 C0 3.35 0 1.7 0 0 Z M2 2 C2 2.99 2 3.98 2 5 C2.99 5 3.98 5 5 5 C5 4.01 5 3.02 5 2 C4.01 2 3.02 2 2 2 Z M-8 7 C-8 7.99 -8 8.98 -8 10 C-7.01 10 -6.02 10 -5 10 C-5 9.01 -5 8.02 -5 7 C-5.99 7 -6.98 7 -8 7 Z M-3 7 C-3 7.99 -3 8.98 -3 10 C-2.01 10 -1.02 10 0 10 C0 9.01 0 8.02 0 7 C-0.99 7 -1.98 7 -3 7 Z M2 7 C2 7.99 2 8.98 2 10 C2.99 10 3.98 10 5 10 C5 9.01 5 8.02 5 7 C4.01 7 3.02 7 2 7 Z M19 8 C19.33 10.31 19.66 12.62 20 15 C21.98 14.67 23.96 14.34 26 14 C26 13.34 26 12.68 26 12 C24.68 12 23.36 12 22 12 C20.25 10 20.25 10 19 8 Z M-13 12 C-13 12.99 -13 13.98 -13 15 C-12.01 15 -11.02 15 -10 15 C-10 14.01 -10 13.02 -10 12 C-10.99 12 -11.98 12 -13 12 Z M-8 12 C-8 12.99 -8 13.98 -8 15 C-7.01 15 -6.02 15 -5 15 C-5 14.01 -5 13.02 -5 12 C-5.99 12 -6.98 12 -8 12 Z M-3 12 C-3 12.99 -3 13.98 -3 15 C-2.01 15 -1.02 15 0 15 C0 14.01 0 13.02 0 12 C-0.99 12 -1.98 12 -3 12 Z M2 12 C2 12.99 2 13.98 2 15 C2.99 15 3.98 15 5 15 C5 14.01 5 13.02 5 12 C4.01 12 3.02 12 2 12 Z M7 12 C7 12.99 7 13.98 7 15 C7.99 15 8.98 15 10 15 C10 14.01 10 13.02 10 12 C9.01 12 8.02 12 7 12 Z M19 15 C18.67 15.33 18.34 15.66 18 16 C15.48119483 16.15988491 12.98657734 16.25934225 10.46484375 16.31640625 C9.71159317 16.33718735 8.95834259 16.35796844 8.18226624 16.37937927 C5.7674401 16.44495425 3.35250202 16.50379621 0.9375 16.5625 C-0.69597529 16.6056777 -2.3294391 16.64929173 -3.96289062 16.69335938 C-7.97514464 16.80064362 -11.98751164 16.90188821 -16 17 C-15.67 17.66 -15.34 18.32 -15 19 C-4.11 19 6.78 19 18 19 C18.66 17.68 19.32 16.36 20 15 C19.67 15 19.34 15 19 15 Z M24 17 C23.34 17.66 22.68 18.32 22 19 C23.32 18.67 24.64 18.34 26 18 C25.34 17.67 24.68 17.34 24 17 Z M-17 20 C-16.67 21.32 -16.34 22.64 -16 24 C-11.07872966 24.16682272 -7.49656104 24.24828052 -3 22 C-3 22.66 -3 23.32 -3 24 C-3.66 24 -4.32 24 -5 24 C-5 24.66 -5 25.32 -5 26 C-7.31 26.33 -9.62 26.66 -12 27 C-10.16218699 29.42257169 -9.2389065 29.96327061 -6.1796875 30.43359375 C2.44279947 30.44378581 8.82639749 29.46103623 15.5625 23.875 C17.20281051 22.12923659 17.20281051 22.12923659 17 20 C5.78 20 -5.44 20 -17 20 Z " fill="#FFFFFF" transform="translate(20,9)"/>
</svg>
