<?xml version="1.0" encoding="UTF-8"?>
<svg version="1.1" xmlns="http://www.w3.org/2000/svg" width="50" height="50">
<path d="M0 0 C5.56340585 3.36669624 9.53349183 8.25193794 11.5 14.4375 C12.30594257 22.2813829 12.59671889 30.02934467 7.5 36.4375 C3.04867668 41.14197914 -1.19064516 44.09747071 -7.76953125 44.7734375 C-16.04371997 44.8646634 -22.08428015 44.61560264 -28.2421875 38.7890625 C-34.17397269 32.28964236 -34.96296445 26.57688134 -34.80859375 17.88671875 C-34.22339005 11.3457711 -31.85547257 7.43687235 -27.0625 3.0625 C-19.84507341 -2.93248543 -8.52200107 -3.84066973 0 0 Z M-27.875 8.625 C-31.09951674 12.5698875 -31.47742421 16.45953861 -31.5 21.4375 C-29.85 21.4375 -28.2 21.4375 -26.5 21.4375 C-24.77071163 14.52590962 -24.77071163 14.52590962 -24.5 7.4375 C-23.654375 7.59992187 -22.80875 7.76234375 -21.9375 7.9296875 C-18.40536223 8.45148058 -15.06865371 8.57032599 -11.5 8.5625 C-10.324375 8.56507812 -9.14875 8.56765625 -7.9375 8.5703125 C-4.70274496 8.44533333 -1.67531283 8.0473924 1.5 7.4375 C1.479375 8.63375 1.45875 9.83 1.4375 11.0625 C1.43117429 14.61754869 1.80111125 17.94305624 2.5 21.4375 C4.48 21.4375 6.46 21.4375 8.5 21.4375 C9.13968562 16.32001508 7.77779638 13.45528327 5 9.3359375 C2.08487239 5.64647912 -0.97438639 2.94603787 -5.5 1.4375 C-15.2063004 0.57187964 -20.9270696 1.57874983 -27.875 8.625 Z M-21.5 10.4375 C-23.4306131 16.96682824 -23.4306131 16.96682824 -22.3125 23.4375 C-19.95197313 26.04221931 -18.28606241 27.34120176 -14.7578125 27.7734375 C-13.72398438 27.78632813 -12.69015625 27.79921875 -11.625 27.8125 C-10.08199219 27.85503906 -10.08199219 27.85503906 -8.5078125 27.8984375 C-4.67283696 27.31073995 -3.05831244 26.35179284 -0.5 23.4375 C-0.11166559 20.15071534 -0.11166559 20.15071534 -0.6875 16.6875 C-0.82542969 15.51703125 -0.96335937 14.3465625 -1.10546875 13.140625 C-1.30076172 11.80257813 -1.30076172 11.80257813 -1.5 10.4375 C-2.19867188 10.59992187 -2.89734375 10.76234375 -3.6171875 10.9296875 C-6.67697626 11.46867468 -9.51990103 11.5702822 -12.625 11.5625 C-14.17574219 11.56636719 -14.17574219 11.56636719 -15.7578125 11.5703125 C-18.5 11.4375 -18.5 11.4375 -21.5 10.4375 Z M-31.5 25.4375 C-30.40931332 29.21295388 -29.5916909 31.90793472 -26.5 34.4375 C-27.16 32.1275 -27.82 29.8175 -28.5 27.4375 C-25.4168649 28.63649698 -22.43720508 29.91450477 -19.5 31.4375 C-19.17 30.7775 -18.84 30.1175 -18.5 29.4375 C-19.304375 28.963125 -20.10875 28.48875 -20.9375 28 C-23.5 26.4375 -23.5 26.4375 -24.5 25.4375 C-26.83297433 25.39657063 -29.16705225 25.39508277 -31.5 25.4375 Z M-5.5 30.4375 C-5.17 33.7375 -4.84 37.0375 -4.5 40.4375 C0.90906584 38.24811621 4.29813908 35.23504242 7.5 30.4375 C8.44240924 27.67985649 8.44240924 27.67985649 8.5 25.4375 C1.94655183 24.7687808 -0.60703712 26.44324458 -5.5 30.4375 Z M-14.5 31.4375 C-16.23734147 35.23793446 -16.5 37.03464577 -16.5 41.4375 C-13.2 41.4375 -9.9 41.4375 -6.5 41.4375 C-6.644375 40.15875 -6.78875 38.88 -6.9375 37.5625 C-7.05931641 36.48355469 -7.05931641 36.48355469 -7.18359375 35.3828125 C-7.41292961 33.36345684 -7.41292961 33.36345684 -8.5 31.4375 C-10.48 31.4375 -12.46 31.4375 -14.5 31.4375 Z M-24.5 36.4375 C-22.44766315 38.6852975 -21.49332739 39.4397242 -18.5 40.4375 C-18.5 39.1175 -18.5 37.7975 -18.5 36.4375 C-20.48 36.4375 -22.46 36.4375 -24.5 36.4375 Z " fill="#FFFFFF" transform="translate(36.5,3.5625)"/>
</svg>
