<?xml version="1.0" encoding="UTF-8"?>
<svg version="1.1" xmlns="http://www.w3.org/2000/svg" width="50" height="50">
<path d="M0 0 C1.32 0 2.64 0 4 0 C4.67184618 2.10251861 5.33730968 4.20707763 6 6.3125 C6.37125 7.48425781 6.7425 8.65601563 7.125 9.86328125 C8 13 8 13 8 16 C12.62 16 17.24 16 22 16 C22.28875 14.659375 22.5775 13.31875 22.875 11.9375 C23.76838981 7.90448315 24.82097941 3.95814055 26 0 C27.32 0 28.64 0 30 0 C31.34658979 3.55762934 32.6748998 7.12181652 34 10.6875 C34.3815625 11.69490234 34.763125 12.70230469 35.15625 13.74023438 C35.69765625 15.20493164 35.69765625 15.20493164 36.25 16.69921875 C36.58515625 17.59471436 36.9203125 18.49020996 37.265625 19.4128418 C38.05084919 22.17913858 38.41928469 24.14862939 38 27 C36.39526367 28.72924805 36.39526367 28.72924805 34.16796875 30.26171875 C33.36939453 30.82310547 32.57082031 31.38449219 31.74804688 31.96289062 C30.90306641 32.53201172 30.05808594 33.10113281 29.1875 33.6875 C28.35412109 34.26822266 27.52074219 34.84894531 26.66210938 35.44726562 C17.20528831 42.01766741 17.20528831 42.01766741 14.56884766 41.79077148 C11.89896587 40.96889854 10.1500319 39.98426455 7.8984375 38.34765625 C7.16109375 37.81849609 6.42375 37.28933594 5.6640625 36.74414062 C4.90867187 36.18919922 4.15328125 35.63425781 3.375 35.0625 C1.86204911 33.96995522 0.34903097 32.87750356 -1.1640625 31.78515625 C-1.82873535 31.29926025 -2.4934082 30.81336426 -3.17822266 30.31274414 C-4.76030647 29.17271939 -6.37747086 28.08168609 -8 27 C-7.46649744 20.50779983 -5.78611207 15.05523349 -3.4375 9 C-3.10814453 8.12988281 -2.77878906 7.25976562 -2.43945312 6.36328125 C-1.63411705 4.23906146 -0.82088519 2.11824836 0 0 Z M1 7 C0.01 9.97 -0.98 12.94 -2 16 C0.31 16 2.62 16 5 16 C4.01 13.03 3.02 10.06 2 7 C1.67 7 1.34 7 1 7 Z M28 7 C27.01 9.97 26.02 12.94 25 16 C27.31 16 29.62 16 32 16 C31.01 13.03 30.02 10.06 29 7 C28.67 7 28.34 7 28 7 Z M-1 18 C2.38772897 22.69159716 5.78185183 27.0299782 10 31 C9.52343588 29.20763933 9.04366502 27.41613103 8.5625 25.625 C8.16224609 24.12839844 8.16224609 24.12839844 7.75390625 22.6015625 C7.09815644 20.04582299 7.09815644 20.04582299 6 18 C3.69 18 1.38 18 -1 18 Z M9 18 C10.65 23.28 12.3 28.56 14 34 C14.66 34 15.32 34 16 34 C17.65 28.72 19.3 23.44 21 18 C17.04 18 13.08 18 9 18 Z M24 18 C23.30329584 19.78810766 22.61788811 21.58062052 21.9375 23.375 C21.55464844 24.37273438 21.17179687 25.37046875 20.77734375 26.3984375 C19.69092519 28.95231831 19.69092519 28.95231831 21 31 C22.66963542 29.02327092 24.33580073 27.0437967 26 25.0625 C26.47695313 24.49853516 26.95390625 23.93457031 27.4453125 23.35351562 C29.89815074 20.96865051 29.89815074 20.96865051 31 18 C28.69 18 26.38 18 24 18 Z M-4 20 C-4.33 21.65 -4.66 23.3 -5 25 C-2.36 26.98 0.28 28.96 3 31 C3.66 30.67 4.32 30.34 5 30 C3.69118353 28.33043913 2.37785174 26.66441696 1.0625 25 C0.33160156 24.071875 -0.39929688 23.14375 -1.15234375 22.1875 C-1.76207031 21.465625 -2.37179688 20.74375 -3 20 C-3.33 20 -3.66 20 -4 20 Z M33 20 C31.6143159 21.64055622 30.26610335 23.31288463 28.9375 25 C27.83728516 26.3921875 27.83728516 26.3921875 26.71484375 27.8125 C26.14894531 28.534375 25.58304688 29.25625 25 30 C28.39593478 30 29.06619881 29.47834052 31.6875 27.5 C32.62142578 26.80390625 32.62142578 26.80390625 33.57421875 26.09375 C34.04472656 25.7328125 34.51523437 25.371875 35 25 C34.67 23.35 34.34 21.7 34 20 C33.67 20 33.34 20 33 20 Z " fill="#FFFFFF" transform="translate(10,4)"/>
</svg>
