<?xml version="1.0" encoding="UTF-8"?>
<svg version="1.1" xmlns="http://www.w3.org/2000/svg" width="50" height="50">
<path d="M0 0 C0.99 0.33 1.98 0.66 3 1 C3 2.32 3 3.64 3 5 C7.33768102 7.16198167 7.33768102 7.16198167 12 8 C12 7.34 12 6.68 12 6 C12.99 6 13.98 6 15 6 C15 6.99 15 7.98 15 9 C14.01 9.495 14.01 9.495 13 10 C13 12.97 13 15.94 13 19 C14.98 19.33 16.96 19.66 19 20 C18.505 21.485 18.505 21.485 18 23 C17.2575 22.896875 16.515 22.79375 15.75 22.6875 C12.81601593 22.75239053 12.81601593 22.75239053 10.625 25.125 C8.68614822 27.9331408 8.68614822 27.9331408 9.25 31.3125 C9.4975 32.199375 9.745 33.08625 10 34 C8.68 34 7.36 34 6 34 C5.67 33.01 5.34 32.02 5 31 C2.36 31 -0.28 31 -3 31 C-3.495 32.485 -3.495 32.485 -4 34 C-5.32 33.67 -6.64 33.34 -8 33 C-7.7525 32.278125 -7.505 31.55625 -7.25 30.8125 C-6.71663782 27.86823459 -6.71663782 27.86823459 -8.625 25.1875 C-10.80458623 22.74825418 -10.80458623 22.74825418 -13.75 22.6875 C-14.4925 22.790625 -15.235 22.89375 -16 23 C-16 22.01 -16 21.02 -16 20 C-14.68 19.67 -13.36 19.34 -12 19 C-11.505 14.545 -11.505 14.545 -11 10 C-11.66 9.67 -12.32 9.34 -13 9 C-13 8.01 -13 7.02 -13 6 C-12.401875 6.165 -11.80375 6.33 -11.1875 6.5 C-7.24363363 7.40145517 -4.51504875 6.94252694 -1 5 C-0.10613836 2.45224694 -0.10613836 2.45224694 0 0 Z M-3 9 C-3 9.99 -3 10.98 -3 12 C-2.34 12 -1.68 12 -1 12 C-1 11.01 -1 10.02 -1 9 C-1.66 9 -2.32 9 -3 9 Z M3 9 C3.33 10.32 3.66 11.64 4 13 C4.99 12.01 5.98 11.02 7 10 C5.68 9.67 4.36 9.34 3 9 Z M-8 14 C-8 14.99 -8 15.98 -8 17 C-7.01 17 -6.02 17 -5 17 C-5.33 16.01 -5.66 15.02 -6 14 C-6.66 14 -7.32 14 -8 14 Z M9 14 C8.01 15.485 8.01 15.485 7 17 C7.99 17 8.98 17 10 17 C9.67 16.01 9.34 15.02 9 14 Z M0 17 C0 17.66 0 18.32 0 19 C0.66 19 1.32 19 2 19 C2 18.34 2 17.68 2 17 C1.34 17 0.68 17 0 17 Z M-5 21 C-5.99 21.495 -5.99 21.495 -7 22 C-6.67 22.99 -6.34 23.98 -6 25 C-5.01 24.01 -4.02 23.02 -3 22 C-3.66 21.67 -4.32 21.34 -5 21 Z M6 22 C6.33 22.99 6.66 23.98 7 25 C7.66 24.67 8.32 24.34 9 24 C9 23.34 9 22.68 9 22 C8.01 22 7.02 22 6 22 Z M0 25 C-0.33 25.66 -0.66 26.32 -1 27 C0.32 26.67 1.64 26.34 3 26 C2.01 25.67 1.02 25.34 0 25 Z " fill="#FFFFFF" transform="translate(24,8)"/>
<path d="M0 0 C4.25016308 2.83662808 5.56084465 5.98613359 6.6171875 10.87890625 C7.13152463 13.55782573 7.3978895 16.07792247 7.6171875 18.81640625 C7.73320313 19.98171875 7.84921875 21.14703125 7.96875 22.34765625 C7.2833656 29.11011567 2.91382168 34.23430406 -2.19824219 38.515625 C-8.61438818 42.33605704 -16.93765244 41.6226259 -24.05566406 40.44628906 C-28.48449487 39.24754971 -30.70055878 36.89097852 -33.109375 33.125 C-33.52960937 32.36316406 -33.94984375 31.60132813 -34.3828125 30.81640625 C-35.6203125 29.51703125 -35.6203125 29.51703125 -36.8828125 28.19140625 C-40.29733863 22.78507321 -38.22693458 14.78871397 -36.92529297 8.75976562 C-35.4415649 3.68553386 -33.27853809 1.38567701 -28.671875 -1.15454102 C-17.83404391 -6.30813511 -10.50081497 -5.79038643 0 0 Z M-31.3828125 4.81640625 C-34.66600788 9.91156741 -35.59376284 16.43091051 -35.22265625 22.38671875 C-34.06548792 25.73443364 -32.10404527 28.30971463 -29.9453125 31.06640625 C-29.53732422 31.6078125 -29.12933594 32.14921875 -28.70898438 32.70703125 C-26.45027929 35.72295422 -26.45027929 35.72295422 -23.3828125 37.81640625 C-20.76038894 38.02014615 -18.19572047 38.1399735 -15.5703125 38.19140625 C-14.85810547 38.22878906 -14.14589844 38.26617187 -13.41210938 38.3046875 C-9.49277552 38.3699493 -7.68315026 38.06125142 -4.61328125 35.55859375 C-3.50919922 34.20121094 -3.50919922 34.20121094 -2.3828125 32.81640625 C-1.70476563 32.11 -1.02671875 31.40359375 -0.328125 30.67578125 C3.25886273 26.60981706 3.25886273 26.60981706 4.9453125 21.5859375 C4.7285659 19.23090235 4.21659887 17.10262271 3.6171875 14.81640625 C3.53984375 13.97722656 3.4625 13.13804688 3.3828125 12.2734375 C2.91664967 9.19210119 2.38576601 7.4074803 0.6171875 4.81640625 C-9.95251361 -2.69459151 -21.05155279 -3.88148933 -31.3828125 4.81640625 Z " fill="#FFFFFF" transform="translate(40.3828125,7.18359375)"/>
</svg>
